<svg width="24" height="24" viewBox="0 0 24 24" fill="none" xmlns="http://www.w3.org/2000/svg">
<path d="M2 9C2 7.11438 2 6.17157 2.58579 5.58579C3.17157 5 4.11438 5 6 5H18C19.8856 5 20.8284 5 21.4142 5.58579C22 6.17157 22 7.11438 22 9C22 9.4714 22 9.70711 21.8536 9.85355C21.7071 10 21.4714 10 21 10H3C2.5286 10 2.29289 10 2.14645 9.85355C2 9.70711 2 9.4714 2 9Z" fill="white" stroke="url(#paint0_radial)" stroke-width="1.5"/>
<path fill-rule="evenodd" clip-rule="evenodd" d="M2 18C2 19.8856 2 20.8284 2.58579 21.4142C3.17157 22 4.11438 22 6 22H18C19.8856 22 20.8284 22 21.4142 21.4142C22 20.8284 22 19.8856 22 18V13C22 12.5286 22 12.2929 21.8536 12.1464C21.7071 12 21.4714 12 21 12H3C2.5286 12 2.29289 12 2.14645 12.1464C2 12.2929 2 12.5286 2 13V18ZM7 15C7 14.5286 7 14.2929 7.14645 14.1464C7.29289 14 7.5286 14 8 14H10C10.4714 14 10.7071 14 10.8536 14.1464C11 14.2929 11 14.5286 11 15C11 15.4714 11 15.7071 10.8536 15.8536C10.7071 16 10.4714 16 10 16H8C7.5286 16 7.29289 16 7.14645 15.8536C7 15.7071 7 15.4714 7 15ZM7.14645 18.1464C7 18.2929 7 18.5286 7 19C7 19.4714 7 19.7071 7.14645 19.8536C7.29289 20 7.5286 20 8 20H10C10.4714 20 10.7071 20 10.8536 19.8536C11 19.7071 11 19.4714 11 19C11 18.5286 11 18.2929 10.8536 18.1464C10.7071 18 10.4714 18 10 18H8C7.5286 18 7.29289 18 7.14645 18.1464ZM13 15C13 14.5286 13 14.2929 13.1464 14.1464C13.2929 14 13.5286 14 14 14H16C16.4714 14 16.7071 14 16.8536 14.1464C17 14.2929 17 14.5286 17 15C17 15.4714 17 15.7071 16.8536 15.8536C16.7071 16 16.4714 16 16 16H14C13.5286 16 13.2929 16 13.1464 15.8536C13 15.7071 13 15.4714 13 15ZM13.1464 18.1464C13 18.2929 13 18.5286 13 19C13 19.4714 13 19.7071 13.1464 19.8536C13.2929 20 13.5286 20 14 20H16C16.4714 20 16.7071 20 16.8536 19.8536C17 19.7071 17 19.4714 17 19C17 18.5286 17 18.2929 16.8536 18.1464C16.7071 18 16.4714 18 16 18H14C13.5286 18 13.2929 18 13.1464 18.1464Z" fill="white"/>
<path d="M2.58579 21.4142L3.11612 20.8839L3.11612 20.8839L2.58579 21.4142ZM21.4142 21.4142L20.8839 20.8839L20.8839 20.8839L21.4142 21.4142ZM7.14645 14.1464L7.67678 14.6768L7.67678 14.6768L7.14645 14.1464ZM10.8536 14.1464L11.3839 13.6161L11.3839 13.6161L10.8536 14.1464ZM10.8536 15.8536L11.3839 16.3839L11.3839 16.3839L10.8536 15.8536ZM7.14645 15.8536L7.67678 15.3232L7.67678 15.3232L7.14645 15.8536ZM10.8536 19.8536L11.3839 20.3839L11.3839 20.3839L10.8536 19.8536ZM10.8536 18.1464L11.3839 17.6161L11.3839 17.6161L10.8536 18.1464ZM13.1464 14.1464L12.6161 13.6161L12.6161 13.6161L13.1464 14.1464ZM16.8536 14.1464L17.3839 13.6161L17.3839 13.6161L16.8536 14.1464ZM16.8536 15.8536L17.3839 16.3839L17.3839 16.3839L16.8536 15.8536ZM13.1464 15.8536L12.6161 16.3839L12.6161 16.3839L13.1464 15.8536ZM13.1464 18.1464L12.6161 17.6161L12.6161 17.6161L13.1464 18.1464ZM13.1464 19.8536L12.6161 20.3839L12.6161 20.3839L13.1464 19.8536ZM16.8536 19.8536L17.3839 20.3839L17.3839 20.3839L16.8536 19.8536ZM16.8536 18.1464L17.3839 17.6161L17.3839 17.6161L16.8536 18.1464ZM3.11612 20.8839C2.9858 20.7536 2.87858 20.5561 2.81654 20.0946C2.75159 19.6116 2.75 18.964 2.75 18H1.25C1.25 18.9216 1.24841 19.6883 1.32991 20.2945C1.41432 20.9223 1.59999 21.4891 2.05546 21.9445L3.11612 20.8839ZM6 21.25C5.03599 21.25 4.38843 21.2484 3.90539 21.1835C3.44393 21.1214 3.24643 21.0142 3.11612 20.8839L2.05546 21.9445C2.51093 22.4 3.07773 22.5857 3.70552 22.6701C4.31174 22.7516 5.07839 22.75 6 22.75V21.25ZM18 21.25H6V22.75H18V21.25ZM20.8839 20.8839C20.7536 21.0142 20.5561 21.1214 20.0946 21.1835C19.6116 21.2484 18.964 21.25 18 21.25V22.75C18.9216 22.75 19.6883 22.7516 20.2945 22.6701C20.9223 22.5857 21.4891 22.4 21.9445 21.9445L20.8839 20.8839ZM21.25 18C21.25 18.964 21.2484 19.6116 21.1835 20.0946C21.1214 20.5561 21.0142 20.7536 20.8839 20.8839L21.9445 21.9445C22.4 21.4891 22.5857 20.9223 22.6701 20.2945C22.7516 19.6883 22.75 18.9216 22.75 18H21.25ZM21.25 13V18H22.75V13H21.25ZM21.3232 12.6768C21.2844 12.6379 21.2587 12.5949 21.2446 12.5607C21.233 12.5324 21.2346 12.5228 21.2384 12.5513C21.2423 12.5803 21.2459 12.6276 21.2479 12.7073C21.25 12.7865 21.25 12.8794 21.25 13H22.75C22.75 12.7855 22.7516 12.5492 22.725 12.3514C22.6955 12.1321 22.6197 11.8519 22.3839 11.6161L21.3232 12.6768ZM21 12.75C21.1206 12.75 21.2135 12.75 21.2927 12.752C21.3724 12.7541 21.4197 12.7577 21.4487 12.7616C21.4772 12.7654 21.4676 12.767 21.4393 12.7554C21.4051 12.7413 21.3621 12.7156 21.3232 12.6768L22.3839 11.6161C22.1481 11.3803 21.8679 11.3045 21.6486 11.275C21.4508 11.2484 21.2145 11.25 21 11.25V12.75ZM3 12.75H21V11.25H3V12.75ZM2.67678 12.6768C2.63793 12.7156 2.59492 12.7413 2.56066 12.7554C2.53238 12.767 2.52282 12.7654 2.5513 12.7616C2.58026 12.7577 2.62762 12.7541 2.70727 12.752C2.78654 12.75 2.87936 12.75 3 12.75V11.25C2.7855 11.25 2.54918 11.2484 2.35143 11.275C2.13211 11.3045 1.85192 11.3803 1.61612 11.6161L2.67678 12.6768ZM2.75 13C2.75 12.8794 2.75005 12.7865 2.75205 12.7073C2.75406 12.6276 2.75772 12.5803 2.76162 12.5513C2.76545 12.5228 2.76701 12.5324 2.75538 12.5607C2.74128 12.5949 2.71562 12.6379 2.67678 12.6768L1.61612 11.6161C1.38032 11.8519 1.30448 12.1321 1.27499 12.3514C1.24841 12.5492 1.25 12.7855 1.25 13H2.75ZM2.75 18V13H1.25V18H2.75ZM6.61612 13.6161C6.38032 13.8519 6.30448 14.1321 6.27499 14.3514C6.24841 14.5492 6.25 14.7855 6.25 15H7.75C7.75 14.8794 7.75005 14.7865 7.75205 14.7073C7.75406 14.6276 7.75772 14.5803 7.76162 14.5513C7.76545 14.5228 7.76701 14.5324 7.75538 14.5607C7.74128 14.5949 7.71562 14.6379 7.67678 14.6768L6.61612 13.6161ZM8 13.25C7.7855 13.25 7.54918 13.2484 7.35143 13.275C7.1321 13.3045 6.85192 13.3803 6.61612 13.6161L7.67678 14.6768C7.63793 14.7156 7.59492 14.7413 7.56066 14.7554C7.53238 14.767 7.52282 14.7654 7.5513 14.7616C7.58026 14.7577 7.62762 14.7541 7.70727 14.752C7.78654 14.75 7.87936 14.75 8 14.75V13.25ZM10 13.25H8V14.75H10V13.25ZM11.3839 13.6161C11.1481 13.3803 10.8679 13.3045 10.6486 13.275C10.4508 13.2484 10.2145 13.25 10 13.25V14.75C10.1206 14.75 10.2135 14.75 10.2927 14.752C10.3724 14.7541 10.4197 14.7577 10.4487 14.7616C10.4772 14.7654 10.4676 14.767 10.4393 14.7554C10.4051 14.7413 10.3621 14.7156 10.3232 14.6768L11.3839 13.6161ZM11.75 15C11.75 14.7855 11.7516 14.5492 11.725 14.3514C11.6955 14.1321 11.6197 13.8519 11.3839 13.6161L10.3232 14.6768C10.2844 14.6379 10.2587 14.5949 10.2446 14.5607C10.233 14.5324 10.2346 14.5228 10.2384 14.5513C10.2423 14.5803 10.2459 14.6276 10.248 14.7073C10.25 14.7865 10.25 14.8794 10.25 15H11.75ZM11.3839 16.3839C11.6197 16.1481 11.6955 15.8679 11.725 15.6486C11.7516 15.4508 11.75 15.2145 11.75 15H10.25C10.25 15.1206 10.25 15.2135 10.248 15.2927C10.2459 15.3724 10.2423 15.4197 10.2384 15.4487C10.2346 15.4772 10.233 15.4676 10.2446 15.4393C10.2587 15.4051 10.2844 15.3621 10.3232 15.3232L11.3839 16.3839ZM10 16.75C10.2145 16.75 10.4508 16.7516 10.6486 16.725C10.8679 16.6955 11.1481 16.6197 11.3839 16.3839L10.3232 15.3232C10.3621 15.2844 10.4051 15.2587 10.4393 15.2446C10.4676 15.233 10.4772 15.2346 10.4487 15.2384C10.4197 15.2423 10.3724 15.2459 10.2927 15.248C10.2135 15.25 10.1206 15.25 10 15.25V16.75ZM8 16.75H10V15.25H8V16.75ZM6.61612 16.3839C6.85192 16.6197 7.1321 16.6955 7.35143 16.725C7.54918 16.7516 7.7855 16.75 8 16.75V15.25C7.87936 15.25 7.78654 15.25 7.70727 15.248C7.62762 15.2459 7.58026 15.2423 7.5513 15.2384C7.52282 15.2346 7.53238 15.233 7.56066 15.2446C7.59492 15.2587 7.63793 15.2844 7.67678 15.3232L6.61612 16.3839ZM6.25 15C6.25 15.2145 6.24841 15.4508 6.27499 15.6486C6.30448 15.8679 6.38032 16.1481 6.61612 16.3839L7.67678 15.3232C7.71562 15.3621 7.74128 15.4051 7.75538 15.4393C7.76701 15.4676 7.76545 15.4772 7.76162 15.4487C7.75772 15.4197 7.75406 15.3724 7.75205 15.2927C7.75005 15.2135 7.75 15.1206 7.75 15H6.25ZM7.75 19C7.75 18.8794 7.75005 18.7865 7.75205 18.7073C7.75406 18.6276 7.75772 18.5803 7.76162 18.5513C7.76545 18.5228 7.76701 18.5324 7.75538 18.5607C7.74128 18.5949 7.71562 18.6379 7.67678 18.6768L6.61612 17.6161C6.38032 17.8519 6.30448 18.1321 6.27499 18.3514C6.24841 18.5492 6.25 18.7855 6.25 19H7.75ZM7.67678 19.3232C7.71562 19.3621 7.74128 19.4051 7.75538 19.4393C7.76701 19.4676 7.76545 19.4772 7.76162 19.4487C7.75772 19.4197 7.75406 19.3724 7.75205 19.2927C7.75005 19.2135 7.75 19.1206 7.75 19H6.25C6.25 19.2145 6.24841 19.4508 6.27499 19.6486C6.30448 19.8679 6.38032 20.1481 6.61612 20.3839L7.67678 19.3232ZM8 19.25C7.87936 19.25 7.78654 19.25 7.70727 19.248C7.62762 19.2459 7.58026 19.2423 7.5513 19.2384C7.52282 19.2346 7.53238 19.233 7.56066 19.2446C7.59492 19.2587 7.63793 19.2844 7.67678 19.3232L6.61612 20.3839C6.85192 20.6197 7.1321 20.6955 7.35143 20.725C7.54918 20.7516 7.7855 20.75 8 20.75V19.25ZM10 19.25H8V20.75H10V19.25ZM10.3232 19.3232C10.3621 19.2844 10.4051 19.2587 10.4393 19.2446C10.4676 19.233 10.4772 19.2346 10.4487 19.2384C10.4197 19.2423 10.3724 19.2459 10.2927 19.248C10.2135 19.25 10.1206 19.25 10 19.25V20.75C10.2145 20.75 10.4508 20.7516 10.6486 20.725C10.8679 20.6955 11.1481 20.6197 11.3839 20.3839L10.3232 19.3232ZM10.25 19C10.25 19.1206 10.25 19.2135 10.248 19.2927C10.2459 19.3724 10.2423 19.4197 10.2384 19.4487C10.2346 19.4772 10.233 19.4676 10.2446 19.4393C10.2587 19.4051 10.2844 19.3621 10.3232 19.3232L11.3839 20.3839C11.6197 20.1481 11.6955 19.8679 11.725 19.6486C11.7516 19.4508 11.75 19.2145 11.75 19H10.25ZM10.3232 18.6768C10.2844 18.6379 10.2587 18.5949 10.2446 18.5607C10.233 18.5324 10.2346 18.5228 10.2384 18.5513C10.2423 18.5803 10.2459 18.6276 10.248 18.7073C10.25 18.7865 10.25 18.8794 10.25 19H11.75C11.75 18.7855 11.7516 18.5492 11.725 18.3514C11.6955 18.1321 11.6197 17.8519 11.3839 17.6161L10.3232 18.6768ZM10 18.75C10.1206 18.75 10.2135 18.75 10.2927 18.752C10.3724 18.7541 10.4197 18.7577 10.4487 18.7616C10.4772 18.7654 10.4676 18.767 10.4393 18.7554C10.4051 18.7413 10.3621 18.7156 10.3232 18.6768L11.3839 17.6161C11.1481 17.3803 10.8679 17.3045 10.6486 17.275C10.4508 17.2484 10.2145 17.25 10 17.25V18.75ZM8 18.75H10V17.25H8V18.75ZM7.67678 18.6768C7.63793 18.7156 7.59492 18.7413 7.56066 18.7554C7.53238 18.767 7.52282 18.7654 7.5513 18.7616C7.58026 18.7577 7.62762 18.7541 7.70727 18.752C7.78654 18.75 7.87936 18.75 8 18.75V17.25C7.7855 17.25 7.54918 17.2484 7.35143 17.275C7.1321 17.3045 6.85192 17.3803 6.61612 17.6161L7.67678 18.6768ZM12.6161 13.6161C12.3803 13.8519 12.3045 14.1321 12.275 14.3514C12.2484 14.5492 12.25 14.7855 12.25 15H13.75C13.75 14.8794 13.75 14.7865 13.752 14.7073C13.7541 14.6276 13.7577 14.5803 13.7616 14.5513C13.7654 14.5228 13.767 14.5324 13.7554 14.5607C13.7413 14.5949 13.7156 14.6379 13.6768 14.6768L12.6161 13.6161ZM14 13.25C13.7855 13.25 13.5492 13.2484 13.3514 13.275C13.1321 13.3045 12.8519 13.3803 12.6161 13.6161L13.6768 14.6768C13.6379 14.7156 13.5949 14.7413 13.5607 14.7554C13.5324 14.767 13.5228 14.7654 13.5513 14.7616C13.5803 14.7577 13.6276 14.7541 13.7073 14.752C13.7865 14.75 13.8794 14.75 14 14.75V13.25ZM16 13.25H14V14.75H16V13.25ZM17.3839 13.6161C17.1481 13.3803 16.8679 13.3045 16.6486 13.275C16.4508 13.2484 16.2145 13.25 16 13.25V14.75C16.1206 14.75 16.2135 14.75 16.2927 14.752C16.3724 14.7541 16.4197 14.7577 16.4487 14.7616C16.4772 14.7654 16.4676 14.767 16.4393 14.7554C16.4051 14.7413 16.3621 14.7156 16.3232 14.6768L17.3839 13.6161ZM17.75 15C17.75 14.7855 17.7516 14.5492 17.725 14.3514C17.6955 14.1321 17.6197 13.8519 17.3839 13.6161L16.3232 14.6768C16.2844 14.6379 16.2587 14.5949 16.2446 14.5607C16.233 14.5324 16.2346 14.5228 16.2384 14.5513C16.2423 14.5803 16.2459 14.6276 16.248 14.7073C16.25 14.7865 16.25 14.8794 16.25 15H17.75ZM17.3839 16.3839C17.6197 16.1481 17.6955 15.8679 17.725 15.6486C17.7516 15.4508 17.75 15.2145 17.75 15H16.25C16.25 15.1206 16.25 15.2135 16.248 15.2927C16.2459 15.3724 16.2423 15.4197 16.2384 15.4487C16.2346 15.4772 16.233 15.4676 16.2446 15.4393C16.2587 15.4051 16.2844 15.3621 16.3232 15.3232L17.3839 16.3839ZM16 16.75C16.2145 16.75 16.4508 16.7516 16.6486 16.725C16.8679 16.6955 17.1481 16.6197 17.3839 16.3839L16.3232 15.3232C16.3621 15.2844 16.4051 15.2587 16.4393 15.2446C16.4676 15.233 16.4772 15.2346 16.4487 15.2384C16.4197 15.2423 16.3724 15.2459 16.2927 15.248C16.2135 15.25 16.1206 15.25 16 15.25V16.75ZM14 16.75H16V15.25H14V16.75ZM12.6161 16.3839C12.8519 16.6197 13.1321 16.6955 13.3514 16.725C13.5492 16.7516 13.7855 16.75 14 16.75V15.25C13.8794 15.25 13.7865 15.25 13.7073 15.248C13.6276 15.2459 13.5803 15.2423 13.5513 15.2384C13.5228 15.2346 13.5324 15.233 13.5607 15.2446C13.5949 15.2587 13.6379 15.2844 13.6768 15.3232L12.6161 16.3839ZM12.25 15C12.25 15.2145 12.2484 15.4508 12.275 15.6486C12.3045 15.8679 12.3803 16.1481 12.6161 16.3839L13.6768 15.3232C13.7156 15.3621 13.7413 15.4051 13.7554 15.4393C13.767 15.4676 13.7654 15.4772 13.7616 15.4487C13.7577 15.4197 13.7541 15.3724 13.752 15.2927C13.75 15.2135 13.75 15.1206 13.75 15H12.25ZM13.75 19C13.75 18.8794 13.75 18.7865 13.752 18.7073C13.7541 18.6276 13.7577 18.5803 13.7616 18.5513C13.7654 18.5228 13.767 18.5324 13.7554 18.5607C13.7413 18.5949 13.7156 18.6379 13.6768 18.6768L12.6161 17.6161C12.3803 17.8519 12.3045 18.1321 12.275 18.3514C12.2484 18.5492 12.25 18.7855 12.25 19H13.75ZM13.6768 19.3232C13.7156 19.3621 13.7413 19.4051 13.7554 19.4393C13.767 19.4676 13.7654 19.4772 13.7616 19.4487C13.7577 19.4197 13.7541 19.3724 13.752 19.2927C13.75 19.2135 13.75 19.1206 13.75 19H12.25C12.25 19.2145 12.2484 19.4508 12.275 19.6486C12.3045 19.8679 12.3803 20.1481 12.6161 20.3839L13.6768 19.3232ZM14 19.25C13.8794 19.25 13.7865 19.25 13.7073 19.248C13.6276 19.2459 13.5803 19.2423 13.5513 19.2384C13.5228 19.2346 13.5324 19.233 13.5607 19.2446C13.5949 19.2587 13.6379 19.2844 13.6768 19.3232L12.6161 20.3839C12.8519 20.6197 13.1321 20.6955 13.3514 20.725C13.5492 20.7516 13.7855 20.75 14 20.75V19.25ZM16 19.25H14V20.75H16V19.25ZM16.3232 19.3232C16.3621 19.2844 16.4051 19.2587 16.4393 19.2446C16.4676 19.233 16.4772 19.2346 16.4487 19.2384C16.4197 19.2423 16.3724 19.2459 16.2927 19.248C16.2135 19.25 16.1206 19.25 16 19.25V20.75C16.2145 20.75 16.4508 20.7516 16.6486 20.725C16.8679 20.6955 17.1481 20.6197 17.3839 20.3839L16.3232 19.3232ZM16.25 19C16.25 19.1206 16.25 19.2135 16.248 19.2927C16.2459 19.3724 16.2423 19.4197 16.2384 19.4487C16.2346 19.4772 16.233 19.4676 16.2446 19.4393C16.2587 19.4051 16.2844 19.3621 16.3232 19.3232L17.3839 20.3839C17.6197 20.1481 17.6955 19.8679 17.725 19.6486C17.7516 19.4508 17.75 19.2145 17.75 19H16.25ZM16.3232 18.6768C16.2844 18.6379 16.2587 18.5949 16.2446 18.5607C16.233 18.5324 16.2346 18.5228 16.2384 18.5513C16.2423 18.5803 16.2459 18.6276 16.248 18.7073C16.25 18.7865 16.25 18.8794 16.25 19H17.75C17.75 18.7855 17.7516 18.5492 17.725 18.3514C17.6955 18.1321 17.6197 17.8519 17.3839 17.6161L16.3232 18.6768ZM16 18.75C16.1206 18.75 16.2135 18.75 16.2927 18.752C16.3724 18.7541 16.4197 18.7577 16.4487 18.7616C16.4772 18.7654 16.4676 18.767 16.4393 18.7554C16.4051 18.7413 16.3621 18.7156 16.3232 18.6768L17.3839 17.6161C17.1481 17.3803 16.8679 17.3045 16.6486 17.275C16.4508 17.2484 16.2145 17.25 16 17.25V18.75ZM14 18.75H16V17.25H14V18.75ZM13.6768 18.6768C13.6379 18.7156 13.5949 18.7413 13.5607 18.7554C13.5324 18.767 13.5228 18.7654 13.5513 18.7616C13.5803 18.7577 13.6276 18.7541 13.7073 18.752C13.7865 18.75 13.8794 18.75 14 18.75V17.25C13.7855 17.25 13.5492 17.2484 13.3514 17.275C13.1321 17.3045 12.8519 17.3803 12.6161 17.6161L13.6768 18.6768Z" fill="url(#paint1_radial)"/>
<path d="M7 3L7 6" stroke="url(#paint2_radial)" stroke-width="2" stroke-linecap="round"/>
<path d="M17 3L17 6" stroke="url(#paint3_radial)" stroke-width="2" stroke-linecap="round"/>
<defs>
<radialGradient id="paint0_radial" cx="0" cy="0" r="1" gradientUnits="userSpaceOnUse" gradientTransform="translate(8.86941 6.0542) rotate(51.5716) scale(5.03685 12.74)">
<stop stop-color="#10A2BD"/>
<stop offset="1" stop-color="#35AE85"/>
</radialGradient>
<radialGradient id="paint1_radial" cx="0" cy="0" r="1" gradientUnits="userSpaceOnUse" gradientTransform="translate(8.86941 14.1084) rotate(68.3618) scale(8.48987 15.1167)">
<stop stop-color="#10A2BD"/>
<stop offset="1" stop-color="#35AE85"/>
</radialGradient>
<radialGradient id="paint2_radial" cx="0" cy="0" r="1" gradientUnits="userSpaceOnUse" gradientTransform="translate(6.78916 4.03041) rotate(149.245) scale(0.918306 2.09634)">
<stop stop-color="#10A2BD"/>
<stop offset="1" stop-color="#35AE85"/>
</radialGradient>
<radialGradient id="paint3_radial" cx="0" cy="0" r="1" gradientUnits="userSpaceOnUse" gradientTransform="translate(16.7892 4.03041) rotate(149.245) scale(0.918306 2.09634)">
<stop stop-color="#10A2BD"/>
<stop offset="1" stop-color="#35AE85"/>
</radialGradient>
</defs>
</svg>
