<svg width="648" height="738" viewBox="0 0 648 738" fill="none" xmlns="http://www.w3.org/2000/svg">
<path d="M51.6051 0H648.105V555.5C577.605 659 546.105 709.5 465.105 731C384.105 752.5 270.605 721 170.105 634.5C69.6051 548 122.605 464.5 113.605 391C104.605 317.5 14.1051 302.5 1.60509 194C-8.39491 107.2 30.7718 28.5 51.6051 0Z" fill="url(#paint0_radial)"/>
<path d="M183.5 379.52C177 377.02 163.776 371.5 154.5 350.02C146.9 332.42 127 328.687 118 329.02" stroke="white"/>
<path d="M421.663 220.089C415.166 210.693 419.239 191.994 427.197 188.726C438.191 184.213 452.187 199.704 445.548 205.571C438.909 211.438 426.859 191.467 439.616 181.177C445.378 176.53 456.765 168.922 466.806 181.135C476.847 193.349 471.309 204.042 460.954 190.45C450.598 176.857 462.943 156.269 477.18 164.624" stroke="white"/>
<rect x="72.1801" y="204.197" width="36" height="29" rx="5" transform="rotate(-11.5592 72.1801 204.197)" stroke="white" stroke-width="2"/>
<path d="M114.297 215.487L122.056 218.493L117.848 197.919L111.892 203.73" stroke="white" stroke-width="2"/>
<rect x="495.459" y="391.409" width="23.2859" height="18.628" rx="5" transform="rotate(40.3041 495.459 391.409)" stroke="white" stroke-width="2"/>
<path d="M506.818 417.62L508.433 422.916L517.472 412.26L511.983 411.53" stroke="white" stroke-width="2"/>
<path fill-rule="evenodd" clip-rule="evenodd" d="M400.866 150.572L399.134 149.572L395.634 155.634L389.572 152.134L388.572 153.866L394.634 157.366L391.134 163.428L392.866 164.428L396.366 158.366L402.428 161.866L403.428 160.134L397.366 156.634L400.866 150.572Z" fill="white"/>
<path fill-rule="evenodd" clip-rule="evenodd" d="M198.794 252.5L197.062 251.5L193.562 257.562L187.5 254.062L186.5 255.794L192.562 259.294L189.062 265.356L190.794 266.356L194.294 260.294L200.356 263.794L201.356 262.062L195.294 258.562L198.794 252.5Z" fill="white"/>
<path fill-rule="evenodd" clip-rule="evenodd" d="M458.974 472.079L456.757 472.672L458.836 480.43L451.079 482.508L451.672 484.725L459.43 482.646L461.508 490.403L463.725 489.809L461.646 482.052L469.403 479.974L468.809 477.757L461.052 479.836L458.974 472.079Z" fill="white"/>
<path fill-rule="evenodd" clip-rule="evenodd" d="M531.794 362.5L530.062 361.5L526.562 367.562L520.5 364.062L519.5 365.794L525.562 369.294L522.062 375.356L523.794 376.356L527.294 370.294L533.356 373.794L534.356 372.062L528.294 368.562L531.794 362.5Z" fill="white"/>
<circle cx="186.5" cy="181.5" r="6.5" stroke="white" stroke-width="2"/>
<circle cx="331.5" cy="173.5" r="4.5" stroke="white" stroke-width="2"/>
<circle cx="193.5" cy="325.5" r="7" stroke="white"/>
<circle cx="537.5" cy="493.5" r="7" stroke="white"/>
<circle cx="494.5" cy="234.5" r="7" stroke="white"/>
<circle cx="152.5" cy="418.5" r="4" stroke="white"/>
<circle cx="431.5" cy="566.5" r="4" stroke="white"/>
<path d="M423.5 522C442 529.5 468.5 529 480 522C491.5 515 514 518 519 534.5" stroke="white"/>
<defs>
<radialGradient id="paint0_radial" cx="0" cy="0" r="1" gradientUnits="userSpaceOnUse" gradientTransform="translate(222.605 155.5) rotate(80.1126) scale(590.8 519.17)">
<stop stop-color="#10A2BD"/>
<stop offset="1" stop-color="#35AE85"/>
</radialGradient>
</defs>
</svg>
