<svg width="308" height="309" viewBox="0 0 308 309" fill="none" xmlns="http://www.w3.org/2000/svg">
<g filter="url(#filter0_d)">
<mask id="mask0" mask-type="alpha" maskUnits="userSpaceOnUse" x="2" y="0" width="302" height="302">
<circle cx="152.602" cy="150.602" r="114.147" transform="rotate(-23.8976 152.602 150.602)" fill="#C4C4C4"/>
</mask>
<g mask="url(#mask0)">
<rect x="4.96448" y="95.7366" width="226.902" height="9.74424" transform="rotate(-23.8976 4.96448 95.7366)" fill="#FFEBB8"/>
<rect x="12.8594" y="113.554" width="226.902" height="9.74424" transform="rotate(-23.8976 12.8594 113.554)" fill="#FFEBB8"/>
<rect x="20.7542" y="131.372" width="226.902" height="9.74424" transform="rotate(-23.8976 20.7542 131.372)" fill="#FFEBB8"/>
<rect x="28.649" y="149.19" width="226.902" height="9.74424" transform="rotate(-23.8976 28.649 149.19)" fill="#FFEBB8"/>
<rect x="36.5438" y="167.008" width="226.902" height="9.74424" transform="rotate(-23.8976 36.5438 167.008)" fill="#FFEBB8"/>
<rect x="44.4387" y="184.825" width="226.902" height="9.74424" transform="rotate(-23.8976 44.4387 184.825)" fill="#FFEBB8"/>
<rect x="52.3335" y="202.643" width="226.902" height="9.74424" transform="rotate(-23.8976 52.3335 202.643)" fill="#FFEBB8"/>
<rect x="60.2284" y="220.461" width="226.902" height="9.74424" transform="rotate(-23.8976 60.2284 220.461)" fill="#FFEBB8"/>
<rect x="68.1232" y="238.279" width="226.902" height="9.74424" transform="rotate(-23.8976 68.1232 238.279)" fill="#FFEBB8"/>
<rect x="76.0181" y="256.096" width="226.902" height="9.74424" transform="rotate(-23.8976 76.0181 256.096)" fill="#FFEBB8"/>
<rect x="83.913" y="273.914" width="226.902" height="9.74424" transform="rotate(-23.8976 83.913 273.914)" fill="#FFEBB8"/>
<rect x="91.8077" y="291.732" width="226.902" height="9.74424" transform="rotate(-23.8976 91.8077 291.732)" fill="#FFEBB8"/>
</g>
</g>
<defs>
<filter id="filter0_d" x="0.964478" y="3.81799" width="306.24" height="304.823" filterUnits="userSpaceOnUse" color-interpolation-filters="sRGB">
<feFlood flood-opacity="0" result="BackgroundImageFix"/>
<feColorMatrix in="SourceAlpha" type="matrix" values="0 0 0 0 0 0 0 0 0 0 0 0 0 0 0 0 0 0 127 0"/>
<feOffset dy="4"/>
<feGaussianBlur stdDeviation="2"/>
<feColorMatrix type="matrix" values="0 0 0 0 0 0 0 0 0 0 0 0 0 0 0 0 0 0 0.25 0"/>
<feBlend mode="normal" in2="BackgroundImageFix" result="effect1_dropShadow"/>
<feBlend mode="normal" in="SourceGraphic" in2="effect1_dropShadow" result="shape"/>
</filter>
</defs>
</svg>
